<?xml version="1.0" ?><svg id="meat" style="enable-background:new 0 0 32 32;" version="1.1" viewBox="0 0 32 32" xml:space="preserve" xmlns="http://www.w3.org/2000/svg" xmlns:xlink="http://www.w3.org/1999/xlink"><path d="M29.1,22.8c-0.9-0.9-2.3-1.1-3.4-0.6l-5.1-5c0.9-2,0.8-4.3-0.3-5.9L15.1,4c-0.8-1.2-2.1-1.9-3.7-2c-2-0.2-4,0.7-5.6,2.2  L4.3,5.9C2.7,7.4,1.9,9.3,2,11.2c0.1,1.5,0.7,2.8,1.8,3.7l6.8,5.7c0.9,0.8,2.1,1.1,3.3,1.1c1.1,0,2.2-0.3,3.3-0.9l4.9,4.9  c-0.5,1.1-0.3,2.5,0.6,3.4c0.6,0.6,1.3,0.9,2.1,0.9c0,0,0,0,0,0c0.8,0,1.5-0.3,2.1-0.9c0.4-0.4,0.6-0.8,0.8-1.4  c0.5-0.1,1-0.4,1.3-0.8c0.6-0.6,0.9-1.3,0.9-2.1C30,24.1,29.7,23.3,29.1,22.8z M11.9,19L5,13.4c-0.8-0.7-1-1.6-1-2.2  C3.9,9.8,4.6,8.4,5.7,7.3l1.6-1.6C8.3,4.6,9.7,4,11,4c0.1,0,0.2,0,0.3,0c0.7,0.1,1.6,0.3,2.2,1.2l5.3,7.3c0.8,1.1,0.8,2.8-0.1,4.4  c0,0,0,0,0,0c-0.2,0.4-0.6,0.8-0.9,1.2c-0.3,0.3-0.5,0.5-0.8,0.7C15.1,19.9,13.1,20,11.9,19z M27.7,25.6  C27.7,25.6,27.7,25.6,27.7,25.6c-0.3,0.3-0.6,0.3-0.8,0.3c-0.3,0-0.6,0.1-0.8,0.3s-0.3,0.5-0.3,0.8c0,0.2,0,0.5-0.3,0.8  c-0.2,0.2-0.4,0.3-0.7,0.3c0,0,0,0,0,0c-0.3,0-0.5-0.1-0.7-0.3c-0.4-0.4-0.4-1,0-1.4c0.4-0.4,0.4-1,0-1.4l-5.3-5.3  c0.1-0.1,0.1-0.1,0.2-0.2c0.2-0.2,0.4-0.4,0.5-0.6l5.3,5.3c0.4,0.4,1,0.4,1.4,0c0.4-0.4,1-0.4,1.4,0c0.2,0.2,0.3,0.4,0.3,0.7  C28,25.1,27.9,25.4,27.7,25.6z"/></svg>