<?xml version="1.0" ?><svg id="milk" style="enable-background:new 0 0 32 32;" version="1.1" viewBox="0 0 32 32" xml:space="preserve" xmlns="http://www.w3.org/2000/svg" xmlns:xlink="http://www.w3.org/1999/xlink"><g><path d="M26,13.9c0-0.1,0-0.1,0-0.2c0-0.1,0-0.1-0.1-0.2c0,0,0,0,0-0.1L22,6.7V3c0-0.6-0.4-1-1-1H11c-0.6,0-1,0.4-1,1v3.7l-3.9,6.7   c0,0,0,0,0,0.1c0,0.1,0,0.1-0.1,0.2c0,0.1,0,0.1,0,0.2c0,0,0,0,0,0.1V29c0,0.6,0.4,1,1,1h18c0.6,0,1-0.4,1-1L26,13.9   C26,13.9,26,13.9,26,13.9z M11,9l2.2,3.9H8.7L11,9z M15.5,12.9L12.7,8h7.7l2.8,4.9H15.5z M12,4h8v2h-8V4z M8,14.9h6V28H8V14.9z    M24,28h-8V14.9h8V28z"/><path d="M10,19h2c0.6,0,1-0.4,1-1s-0.4-1-1-1h-2c-0.6,0-1,0.4-1,1S9.4,19,10,19z"/><path d="M12,20.5h-2c-0.6,0-1,0.4-1,1s0.4,1,1,1h2c0.6,0,1-0.4,1-1S12.6,20.5,12,20.5z"/><path d="M12,24h-2c-0.6,0-1,0.4-1,1s0.4,1,1,1h2c0.6,0,1-0.4,1-1S12.6,24,12,24z"/></g></svg>